# xmcd CD database file generated by OrangeCD 5.2
#
# Track frame offsets:
#	150
#	9961
#	21496
#	33848
#	43820
#	60578
#	73428
#	83835
#	95833
#	107407
#	116944
#	129616
#	141280
#	150746
#	161705
#	173093
#	185367
#	197968
#	208672
#	221371
#	233351
#	248995
#	262869
#	274804
#
# Disc length: 3822 seconds
#
# Revision: 0
# Processed by: cddbd v1.5.1PL2 Copyright (c) Steve Scherf et al.
# Submitted via: OrangeCD 5.2
#
DISCID=5b0eec18
DTITLE=Don Gibson - The Singer - The Songwriter 1966 - 1969 Disc 3
DYEAR=1900
DGENRE=Country
TTITLE0=Set Me Free ( and Dottie West)
TTITLE1=I'll Never Stand in your way ( and Dottie West)
TTITLE2=Final Examination ( and Dottie West)
TTITLE3=Sweet Dreams ( and Dottie West)
TTITLE4=Solitary
TTITLE5=I Will Always
TTITLE6=Montego Bay
TTITLE7=Blue Darlin
TTITLE8='Good Deal, Lucille
TTITLE9=Am I That Easy To Forget
TTITLE10=Oh Lonesome Me
TTITLE11=One Has My Name ( The Other Has My Heart)
TTITLE12=Bonaparte's Retreat
TTITLE13=A Little Bitty Tear
TTITLE14=Here Comes my Baby Back Again
TTITLE15=Half As Much
TTITLE16=I Can't Stop Loving You
TTITLE17=Tennessee Waltz
TTITLE18=Almost Persuaded
TTITLE19=Four Walls
TTITLE20=I Found Someone New
TTITLE21=Snap Your Fingers
TTITLE22=There's A Story (Goin' Round) ( and Dottie West)
TTITLE23=Lock, Stock And Teardrops (& Dottie West)
EXTD=
EXTT0=
EXTT1=
EXTT2=
EXTT3=
EXTT4=
EXTT5=
EXTT6=
EXTT7=
EXTT8=
EXTT9=
EXTT10=
EXTT11=
EXTT12=
EXTT13=
EXTT14=
EXTT15=
EXTT16=
EXTT17=
EXTT18=
EXTT19=
EXTT20=
EXTT21=
EXTT22=
EXTT23=
PLAYORDER=
